<?xml version="1.0" encoding="utf-8"?>
<!-- Generator: Adobe Illustrator 15.0.0, SVG Export Plug-In  -->
<!DOCTYPE svg PUBLIC "-//W3C//DTD SVG 1.1//EN" "http://www.w3.org/Graphics/SVG/1.1/DTD/svg11.dtd" [
	<!ENTITY ns_flows "http://ns.adobe.com/Flows/1.0/">
]>
<svg version="1.1"
	 xmlns="http://www.w3.org/2000/svg" xmlns:xlink="http://www.w3.org/1999/xlink" xmlns:a="http://ns.adobe.com/AdobeSVGViewerExtensions/3.0/"
	 x="0px" y="0px" width="218px" height="190px" viewBox="-16.91 -22.215 218 190"
	 overflow="visible" enable-background="new -16.91 -22.215 218 190" xml:space="preserve">
<defs>
</defs>
<polygon fill="#6CC9C8" points="137.371,58.347 120.79,58.148 115.472,73.553 110.54,58.025 93.959,57.827 107.493,48.429 
	102.562,32.902 115.856,42.621 129.392,33.224 124.074,48.629 "/>
<path fill="#0E3150" d="M175.69,136.526H8.727c-4.812,0-8.727-4.493-8.727-10.016V10.016C0,4.493,3.914,0,8.727,0H175.69
	c4.812,0,8.726,4.493,8.726,10.016v116.495C184.416,132.033,180.502,136.526,175.69,136.526z M8.727,5.271
	c-2.279,0-4.133,2.129-4.133,4.745v116.495c0,2.616,1.854,4.744,4.133,4.744H175.69c2.279,0,4.132-2.128,4.132-4.744V10.016
	c0-2.616-1.853-4.745-4.132-4.745H8.727z"/>
<rect x="28.69" y="36.007" fill="#6CC9C8" width="50.021" height="5.382"/>
<rect x="28.69" y="44.617" fill="#6CC9C8" width="50.021" height="5.382"/>
<rect x="28.69" y="53.228" fill="#6CC9C8" width="50.021" height="5.382"/>
<rect x="101.06" y="124.754" fill="#6CC9C8" width="31.048" height="23.073"/>
<path fill="#0E3150" d="M135.767,127.445H97.401c-1.516,0-2.745-1.205-2.745-2.691v-13.968c0-1.486,1.229-2.691,2.745-2.691h38.365
	c1.516,0,2.744,1.205,2.744,2.691v13.968C138.511,126.24,137.282,127.445,135.767,127.445z M100.145,122.062h32.877v-8.585h-32.877
	V122.062z"/>
<path fill="#0E3150" d="M137.235,113.478H95.933c-0.896,0-1.734-0.428-2.248-1.147l-7.528-10.538
	c-0.614-0.861-0.662-1.994-0.122-2.901l27.037-45.404c0.483-0.812,1.362-1.316,2.321-1.334c0.95-0.005,1.854,0.458,2.368,1.251
	l29.321,45.404c0.593,0.918,0.563,2.095-0.07,2.984l-7.528,10.538C138.97,113.05,138.13,113.478,137.235,113.478z M97.36,108.095
	h38.447l5.658-7.923l-25.929-40.151l-23.876,40.096L97.36,108.095z"/>
<path fill="#0E3150" d="M115.665,96.018c-1.211,0-2.194-0.964-2.194-2.153V59.418c0-1.188,0.983-2.152,2.194-2.152
	c1.213,0,2.195,0.964,2.195,2.152v34.446C117.86,95.054,116.878,96.018,115.665,96.018z"/>
<path fill="#0E3150" d="M115.665,103.553c-3.327,0-6.037-2.656-6.037-5.921c0-3.264,2.71-5.92,6.037-5.92
	c3.328,0,6.037,2.656,6.037,5.92C121.702,100.896,118.993,103.553,115.665,103.553z M115.665,96.018
	c-0.907,0-1.646,0.725-1.646,1.614c0,0.891,0.738,1.615,1.646,1.615c0.908,0,1.646-0.725,1.646-1.615
	C117.312,96.742,116.573,96.018,115.665,96.018z"/>
</svg>
