<?xml version="1.0" encoding="utf-8"?>
<!-- Generator: Adobe Illustrator 15.0.0, SVG Export Plug-In  -->
<!DOCTYPE svg PUBLIC "-//W3C//DTD SVG 1.1//EN" "http://www.w3.org/Graphics/SVG/1.1/DTD/svg11.dtd" [
	<!ENTITY ns_flows "http://ns.adobe.com/Flows/1.0/">
]>
<svg version="1.1"
	 xmlns="http://www.w3.org/2000/svg" xmlns:xlink="http://www.w3.org/1999/xlink" xmlns:a="http://ns.adobe.com/AdobeSVGViewerExtensions/3.0/"
	 x="0px" y="0px" width="218px" height="190px" viewBox="-12.831 -31.382 218 190"
	 overflow="visible" enable-background="new -12.831 -31.382 218 190" xml:space="preserve">
<defs>
</defs>
<path fill="#0E3150" d="M181.737,129.494H9.026c-4.977,0-9.026-4.262-9.026-9.5V9.5C0,4.262,4.05,0,9.026,0h172.711
	c4.977,0,9.026,4.262,9.026,9.5v110.494C190.764,125.232,186.714,129.494,181.737,129.494z M9.026,5C6.669,5,4.751,7.019,4.751,9.5
	v110.494c0,2.481,1.918,4.5,4.275,4.5h172.711c2.357,0,4.275-2.019,4.275-4.5V9.5c0-2.481-1.918-4.5-4.275-4.5H9.026z"/>
<rect x="23.882" y="70.432" fill="#6CC9C8" width="143" height="5"/>
<rect x="23.882" y="85.431" fill="#6CC9C8" width="143" height="5"/>
<rect x="23.882" y="100.43" fill="#6CC9C8" width="143" height="5"/>
<polygon points="83.681,48.347 61.536,38.286 61.536,33.407 83.681,23.303 83.681,30.279 71.703,35.872 83.681,41.406 "/>
<polygon points="92.885,54.298 85.937,54.298 98.095,20.273 105.043,20.273 "/>
<polygon points="107.084,48.347 107.084,41.406 119.061,35.872 107.084,30.279 107.084,23.303 129.229,33.407 129.229,38.286 "/>
</svg>
