<?xml version="1.0" encoding="utf-8"?>
<!-- Generator: Adobe Illustrator 15.0.0, SVG Export Plug-In  -->
<!DOCTYPE svg PUBLIC "-//W3C//DTD SVG 1.1//EN" "http://www.w3.org/Graphics/SVG/1.1/DTD/svg11.dtd" [
	<!ENTITY ns_flows "http://ns.adobe.com/Flows/1.0/">
]>
<svg version="1.1"
	 xmlns="http://www.w3.org/2000/svg" xmlns:xlink="http://www.w3.org/1999/xlink" xmlns:a="http://ns.adobe.com/AdobeSVGViewerExtensions/3.0/"
	 x="0px" y="0px" width="218px" height="190px" viewBox="-18.895 -24.582 218 190"
	 overflow="visible" enable-background="new -18.895 -24.582 218 190" xml:space="preserve">
<defs>
</defs>
<path fill="#0E3150" d="M173.871,143.094H8.636c-4.762,0-8.636-4.262-8.636-9.5V23.1c0-5.238,3.874-9.5,8.636-9.5h165.235
	c4.762,0,8.636,4.262,8.636,9.5v110.494C182.507,138.832,178.633,143.094,173.871,143.094z M8.636,18.6
	c-2.256,0-4.091,2.019-4.091,4.5v110.494c0,2.481,1.835,4.5,4.091,4.5h165.235c2.256,0,4.091-2.019,4.091-4.5V23.1
	c0-2.481-1.835-4.5-4.091-4.5H8.636z"/>
<path fill="#0E3150" d="M57.47,18.612H30.167c-1.381,0-2.5-1.119-2.5-2.5V2.5c0-1.381,1.119-2.5,2.5-2.5H57.47
	c1.381,0,2.5,1.119,2.5,2.5v13.612C59.97,17.493,58.851,18.612,57.47,18.612z M32.667,13.612H54.97V5H32.667V13.612z"/>
<ellipse fill="#6CC9C8" cx="91.253" cy="78.347" rx="29.304" ry="30.053"/>
<path fill="#0E3150" d="M91.254,110.899c-17.537,0-31.805-14.604-31.805-32.553s14.268-32.553,31.805-32.553
	s31.804,14.604,31.804,32.553S108.791,110.899,91.254,110.899z M91.254,50.794c-14.78,0-26.805,12.36-26.805,27.553
	s12.024,27.553,26.805,27.553c14.779,0,26.804-12.36,26.804-27.553S106.033,50.794,91.254,50.794z"/>
<path fill="#0E3150" d="M91.254,123.514c-24.32,0-44.105-20.262-44.105-45.167S66.934,33.18,91.254,33.18
	c24.318,0,44.104,20.262,44.104,45.167S115.572,123.514,91.254,123.514z M91.254,38.18c-21.562,0-39.105,18.019-39.105,40.167
	s17.543,40.167,39.105,40.167c21.562,0,39.104-18.019,39.104-40.167S112.815,38.18,91.254,38.18z"/>
<path fill="#0E3150" d="M164.484,37.857c0,4.716-2.497,8.538-5.58,8.538h-10.003c-3.081,0-5.58-3.822-5.58-8.538l0,0
	c0-4.716,2.499-8.538,5.58-8.538h10.003C161.987,29.319,164.484,33.142,164.484,37.857L164.484,37.857z"/>
</svg>
