<?xml version="1.0" encoding="utf-8"?>
<!-- Generator: Adobe Illustrator 15.0.0, SVG Export Plug-In  -->
<!DOCTYPE svg PUBLIC "-//W3C//DTD SVG 1.1//EN" "http://www.w3.org/Graphics/SVG/1.1/DTD/svg11.dtd" [
	<!ENTITY ns_flows "http://ns.adobe.com/Flows/1.0/">
]>
<svg version="1.1"
	 xmlns="http://www.w3.org/2000/svg" xmlns:xlink="http://www.w3.org/1999/xlink" xmlns:a="http://ns.adobe.com/AdobeSVGViewerExtensions/3.0/"
	 x="0px" y="0px" width="145px" height="126px" viewBox="-14.168 -15.964 145 126"
	 overflow="visible" enable-background="new -14.168 -15.964 145 126" xml:space="preserve">
<defs>
</defs>
<path fill="#0E3150" d="M26.538,39.228l6.659-27.653c0.476-2.343,1.11-4.687,1.903-7.03c0.792-2.53,2.536-3.281,7.133-2.812
	c4.598,0.469,3.013,5.625-0.633,21.185c-1.269,5.343-6.5,17.248-9.83,21.185c-3.171,3.656-10.623,5.155-16.805,3
	c-2.379-0.844-4.122-1.969-5.391-3.375c-1.902-2.156-3.329-4.499-3.806-6.842L2.282,21.792c-0.793-3.655-1.586-7.499-2.061-11.248
	C-0.097,8.014-0.097,5.389,0.38,2.764C0.696,0.89,2.124,0.328,5.453,0.42c5.073,0.188,7.61,1.031,8.403,2.812
	c0.95,2.156,2.061,4.312,2.854,6.562c2.854,8.249,4.438,16.404,5.549,24.747c0.316,2.437,0.633,6.748,2.061,7.312
	C26.063,41.664,26.222,40.165,26.538,39.228z"/>
<path fill="#0E3150" d="M54.447,43.287c-2.378-0.468-2.7-2.372-2.384-3.778s2.061-2.062,4.279-2.062c0.635,0,1.11,0,1.586,0.094
	c3.171,0.656,4.281,1.875,3.487,3.375c-0.634,1.218-2.054,2.748-4.591,2.748C56.35,43.569,55.398,43.476,54.447,43.287z"/>
<path fill="#0E3150" d="M111.52,7.697c-1.11,5.905-6.017,10.513-10.312,13.472c-4.536,3.126-9.195,5.217-15.061,8.028
	c-0.951,0.469-1.269,0.562-1.902,1.031c8.401,4.125,12.683,9,15.537,14.342c0.793,1.405,0,1.875-2.696,1.875
	c-2.377,0-4.122-0.47-5.073-1.875c-0.95-1.594-1.901-3.187-3.012-4.687c-2.22-3.281-3.964-4.874-6.024-5.343l-0.476,2.155
	c-0.158,0.75-0.158,1.406-0.316,2.062c-1.745,7.217-0.477,9.654-5.708,10.124l-1.11,0.093c-6.023,0.094-7.292-0.469-7.451-4.03
	c-0.316-5.999,0.159-12.186,0.159-18.372c0-1.406,0.158-2.905,0.317-4.5c0.634-5.53,1.109-11.061,1.744-16.685
	c0.158-1.406,0.633-2.625,1.268-4.03c0.476-1.125,1.427-1.5,3.487-1.312c1.903,0.188,3.964,0.656,5.866,1.125
	c2.062,0.468,2.537,2.157,2.854,4.405c0.317,2.25,0.793,14.248,0.635,15.185c6.024-2.531,9.406-4.937,11.15-8.78
	c1.109-2.531,2.061-5.156,3.329-7.687c1.11-2.343,1.903-2.625,5.866-1.969l1.109,0.188C109.98,3.265,111.995,5.166,111.52,7.697z"/>
<path fill="#0E3150" d="M109.779,43.476c-2.378-0.469-3.34-2.561-3.022-3.967s2.062-2.062,4.28-2.062c0.635,0,1.11,0,1.586,0.094
	c3.171,0.656,4.281,1.875,3.488,3.375c-0.635,1.218-1.417,2.936-3.954,2.936C111.683,43.757,110.73,43.663,109.779,43.476z"/>
<polygon fill="#F7EAE4" points="16.249,85.985 17.198,88.906 20.269,88.906 17.784,90.711 18.733,93.631 16.249,91.826 
	13.765,93.631 14.714,90.711 12.229,88.906 15.3,88.906 "/>
<polygon fill="#F7EAE4" points="47.455,87.067 48.222,89.424 50.7,89.424 48.694,90.881 49.46,93.238 47.455,91.78 45.449,93.238 
	46.216,90.881 44.21,89.424 46.688,89.424 "/>
<polygon fill="#F7EAE4" points="63.475,84.937 64.365,87.677 67.247,87.677 64.916,89.371 65.806,92.112 63.475,90.417 
	61.143,92.112 62.034,89.371 59.702,87.677 62.584,87.677 "/>
<polygon fill="#F7EAE4" points="100.886,84.468 101.729,87.066 104.462,87.066 102.252,88.672 103.097,91.271 100.886,89.664 
	98.675,91.271 99.52,88.672 97.309,87.066 100.041,87.066 "/>
<polygon fill="#F7EAE4" points="30.957,85.267 31.575,87.167 33.573,87.167 31.956,88.342 32.573,90.242 30.957,89.067 
	29.339,90.242 29.958,88.342 28.341,87.167 30.34,87.167 "/>
<polygon fill="#F7EAE4" points="84.051,83.258 84.607,84.972 86.41,84.972 84.952,86.031 85.509,87.745 84.051,86.687 
	82.593,87.745 83.15,86.031 81.691,84.972 83.493,84.972 "/>
<polygon fill="#F7EAE4" points="100.775,72.686 100.886,74.401 102.552,74.824 100.955,75.46 101.065,77.176 99.968,75.854 
	98.371,76.489 99.29,75.036 98.191,73.715 99.857,74.139 "/>
<polygon fill="#F7EAE4" points="24.298,26.332 25.808,28.53 28.366,27.772 26.741,29.89 28.254,32.088 25.737,31.197 24.113,33.314 
	24.185,30.646 21.669,29.757 24.228,28.999 "/>
<path fill="#0E3150" d="M10.134,75.57c0.318,1.083,0.637,2.229,1.082,3.31c0.318,0.828,0.511,2.038,1.592,2.292
	c1.082,0.191,1.273-1.335,1.273-2.227c0-2.929-2.291-8.531-3.819-11.65c-0.765-1.528-1.4-3.12-2.101-4.711
	c-0.892-2.165-1.019-4.393-0.764-6.685c0.381-3.374,3.437-5.794,6.811-5.284c1.528,0.19,2.929,0.637,4.266,1.4
	c2.229,1.273,3.374,3.247,3.374,5.857c0,0.763-0.063,1.592-0.191,2.355c-0.127,0.764-0.445,0.955-1.272,0.826
	c-1.592-0.316-2.164-0.89-2.101-1.909c0.254-2.546-0.063-4.202-1.21-5.729c-0.572-0.891-1.21-0.891-1.846-0.062
	c-0.955,1.081-1.02,3.183-0.955,4.393c0.255,4.838,1.146,7.32,3.311,11.013c0.572,0.955,1.145,1.91,1.654,2.929
	c2.419,5.093-0.062,12.477-5.602,11.713c-2.802-0.318-5.093-2.037-6.111-4.711c-0.445-1.082-0.7-2.291-0.893-3.438
	c-0.125-0.572-0.062-0.955,0.129-1.21C7.397,73.215,9.688,74.233,10.134,75.57z"/>
<path fill="#0E3150" d="M24.456,52.717c-0.509-0.319-0.764-1.02,0.064-1.21c1.273-0.318,2.61-0.573,3.883-0.701
	c2.292-0.254,4.584-0.381,6.875-0.509c0.765-0.063,2.229-0.191,2.483,0.255c0.318,0.51,0.191,1.337-0.446,1.527
	c-1.082,0.318-2.164,0.191-3.246,0.446c-0.127,1.21-0.064,4.011-0.064,6.493L33.751,74.68c0,6.492,0.828,9.356-2.291,9.038
	c-1.02,0-1.846-0.445-2.293-0.763c-1.336-0.955-0.954-3.247-0.891-4.902c0.064-10.376,0.127-16.487,0.891-23.936l0.064-1.146
	C26.876,53.354,25.729,53.607,24.456,52.717z"/>
<path fill="#0E3150" d="M48.774,79.453c0.51-0.827,0.954-1.782,1.272-2.609c1.083-2.864,1.655-5.729,2.165-8.658
	c0.764-4.266,1.273-8.531,1.273-12.732c0-1.337,0.127-2.61,0.254-3.884c0.064-0.765,0.318-1.019,1.146-1.082
	c1.782-0.127,2.165,0.445,2.165,1.527c0,7.258-0.51,14.323-2.292,21.391c-0.445,1.782-1.464,4.393-2.164,5.729
	c-1.782,3.438-4.774,4.456-8.977,3.438c-2.292-0.572-3.183-2.609-3.246-4.583c-0.063-2.864-0.318-5.856-0.255-8.785
	c0.128-5.22,0.893-10.312,2.037-15.342c0.19-0.827,0.51-1.527,0.828-2.228c0.699-1.529,2.609-1.783,3.819-0.829
	c0.382,0.318,0.317,0.446,0.317,1.656c-0.062,3.692,0,7.385-0.062,11.141c-0.064,2.736-0.255,5.474-0.383,8.212
	c-0.317,6.748-0.828,8.085,0.191,9.23C47.565,81.491,48.328,80.153,48.774,79.453z"/>
<path fill="#0E3150" d="M61.888,51.443c1.337-1.783,4.965-1.082,6.748-0.319c3.501,1.529,7.192,5.603,8.02,9.677
	c0.828,4.075,1.274,7.958-1.146,14.006c-1.464,3.564-5.156,5.347-8.466,6.047c-1.973,0.445-5.156,1.146-6.238-1.082
	c-0.446-0.892-0.51-1.91-0.573-2.864c-0.064-2.355-0.128-4.711-0.128-7.066C60.168,63.793,60.996,52.653,61.888,51.443z
	 M66.344,56.536c-0.063,1.719-0.128,3.373-0.128,5.092c-0.063,4.202-0.572,8.276-0.764,12.414c-0.063,1.592-0.318,3.184-0.445,4.711
	c-0.127,0.955,0.191,1.273,0.954,1.083c7.066-1.847,8.913-11.269,7.131-18.399c-0.573-2.164-1.146-3.691-2.165-5.603
	c-0.636-1.081-1.909-2.228-3.246-2.991c-0.19-0.127-0.637-0.382-0.892-0.318C66.407,52.78,66.471,53.354,66.344,56.536z"/>
<path fill="#0E3150" d="M85.822,82.063c-1.464,0.254-2.1,0.446-3.438,0.19c-1.019-0.19-1.337-1.019-1.464-1.974
	c-0.445-2.481,0.828-22.599,1.019-25.653c0.063-1.273-1.146-0.383-1.273-2.292c-0.063-0.892,0.954-1.02,1.655-1.211
	c1.464-0.381,4.074-0.062,5.411,0.765c0.701,0.446,0.51,0.637,0.51,0.955c-0.064,1.973-2.356-0.318-2.356,2.037
	c-0.063,6.557-0.063,13.177-0.063,19.799c0,1.146-0.127,2.546,0,3.755c0.255,2.355,1.273,1.719,1.4,2.483
	C87.351,81.809,86.969,81.872,85.822,82.063z"/>
<path fill="#0E3150" d="M106.957,75.125l-0.637,1.974c-1.081,2.291-2.61,3.501-5.029,3.755c-0.572,0.064-1.146,0-1.719,0
	c-3.246-0.063-5.538-1.591-6.557-4.774c-1.591-5.156-1.719-12.604-0.701-18.589c0.256-1.463,0.638-2.863,1.146-4.265
	c0.446-1.273,1.401-1.974,2.865-1.974c0.699,0,1.464-0.255,2.163-0.446c3.82-1.018,7.45,0.765,8.85,4.521
	c0.828,2.292,1.082,4.711,1.146,7.13v1.847C108.548,67.995,107.976,71.561,106.957,75.125z M100.782,77.479
	c1.019-0.572,2.101-2.419,2.546-3.438c1.273-2.864,1.655-6.365,1.655-9.484c0-2.356-0.317-4.648-0.955-6.876
	c-0.445-1.4-1.464-4.584-3.056-5.029c-0.764-0.255-1.909,0.509-2.229,1.145c-0.381,0.765-0.445,1.656-0.445,2.483
	c-0.127,5.73-0.317,11.459-0.444,17.188c0,0.827-0.064,1.719,0.254,2.482c0.318,0.955,1.02,1.974,2.547,1.592
	C100.719,77.479,100.719,77.479,100.782,77.479z"/>
</svg>
