<?xml version="1.0" encoding="utf-8"?>
<!-- Generator: Adobe Illustrator 15.0.0, SVG Export Plug-In  -->
<!DOCTYPE svg PUBLIC "-//W3C//DTD SVG 1.1//EN" "http://www.w3.org/Graphics/SVG/1.1/DTD/svg11.dtd" [
	<!ENTITY ns_flows "http://ns.adobe.com/Flows/1.0/">
]>
<svg version="1.1"
	 xmlns="http://www.w3.org/2000/svg" xmlns:xlink="http://www.w3.org/1999/xlink" xmlns:a="http://ns.adobe.com/AdobeSVGViewerExtensions/3.0/"
	 x="0px" y="0px" width="328px" height="62px" viewBox="-24.236 0 328 62"
	 overflow="visible" enable-background="new -24.236 0 328 62" xml:space="preserve">
<defs>
</defs>
<line fill="none" stroke="#F7EAE4" stroke-width="3" stroke-miterlimit="10" stroke-dasharray="8" x1="12.107" y1="0" x2="12.107" y2="30.57"/>
<line fill="none" stroke="#F7EAE4" stroke-width="3" stroke-miterlimit="10" x1="103.107" y1="0" x2="103.107" y2="22.402"/>
<line fill="none" stroke="#F7EAE4" stroke-width="3" stroke-miterlimit="10" x1="151.256" y1="0" x2="151.256" y2="30.57"/>
<line fill="none" stroke="#F7EAE4" stroke-width="3" stroke-miterlimit="10" x1="200.107" y1="0" x2="200.107" y2="34.322"/>
<line fill="none" stroke="#F7EAE4" stroke-width="3" stroke-miterlimit="10" x1="253.105" y1="0" x2="253.105" y2="30.57"/>
<line fill="none" stroke="#F7EAE4" stroke-width="3" stroke-miterlimit="10" stroke-dasharray="8" x1="137.107" y1="0" x2="137.107" y2="20.289"/>
<line fill="none" stroke="#F7EAE4" stroke-width="3" stroke-miterlimit="10" stroke-dasharray="8" x1="51.107" y1="0" x2="51.107" y2="29.244"/>
<line fill="none" stroke="#F7EAE4" stroke-width="3" stroke-miterlimit="10" stroke-dasharray="8" x1="184.107" y1="0" x2="184.107" y2="22.402"/>
<polygon fill="#F7EAE4" points="12.107,33.934 14.965,42.729 24.213,42.729 16.73,48.164 19.59,56.961 12.107,51.525 4.625,56.961 
	7.482,48.164 0,42.729 9.25,42.729 "/>
<polygon fill="#F7EAE4" points="51.107,31.424 53.414,38.523 60.881,38.523 54.84,42.912 57.148,50.012 51.107,45.625 
	45.066,50.012 47.375,42.912 41.334,38.523 48.801,38.523 "/>
<polygon fill="#F7EAE4" points="151.256,34.641 153.939,42.896 162.619,42.896 155.596,47.998 158.279,56.254 151.256,51.15 
	144.234,56.254 146.916,47.998 139.895,42.896 148.574,42.896 "/>
<polygon fill="#F7EAE4" points="200.107,36.816 202.25,43.41 209.182,43.41 203.572,47.484 205.715,54.078 200.107,50.002 
	194.498,54.078 196.641,47.484 191.031,43.41 197.965,43.41 "/>
<polygon fill="#F7EAE4" points="253.105,31.682 255.648,39.508 263.879,39.508 257.221,44.346 259.766,52.174 253.105,47.336 
	246.447,52.174 248.992,44.346 242.332,39.508 250.562,39.508 "/>
<polygon fill="#F7EAE4" points="27.107,17.441 28.785,22.605 34.213,22.605 29.822,25.795 31.5,30.959 27.107,27.768 22.715,30.959 
	24.393,25.795 20,22.605 25.43,22.605 "/>
<polygon fill="#F7EAE4" points="103.107,26.439 104.967,32.164 110.986,32.164 106.117,35.701 107.977,41.428 103.107,37.889 
	98.236,41.428 100.098,35.701 95.227,32.164 101.246,32.164 "/>
<polygon fill="#F7EAE4" points="137.107,20.289 138.785,25.453 144.213,25.453 139.82,28.643 141.498,33.807 137.107,30.615 
	132.715,33.807 134.393,28.643 130,25.453 135.43,25.453 "/>
<polygon fill="#F7EAE4" points="239.105,16.199 240.783,21.363 246.213,21.363 241.82,24.555 243.498,29.717 239.105,26.527 
	234.715,29.717 236.393,24.555 232,21.363 237.428,21.363 "/>
<polygon fill="#F7EAE4" points="275.105,21.123 276.783,26.285 282.213,26.285 277.82,29.477 279.498,34.641 275.105,31.449 
	270.715,34.641 272.393,29.477 268,26.285 273.428,26.285 "/>
<polygon fill="#F7EAE4" points="184.107,27.881 185.785,33.045 191.213,33.045 186.82,36.236 188.498,41.398 184.107,38.209 
	179.715,41.398 181.393,36.236 177,33.045 182.43,33.045 "/>
<line fill="none" stroke="#F7EAE4" stroke-width="3" stroke-miterlimit="10" stroke-dasharray="8" x1="239.105" y1="0" x2="239.105" y2="16.031"/>
<line fill="none" stroke="#F7EAE4" stroke-width="3" stroke-miterlimit="10" stroke-dasharray="8" x1="275.105" y1="0" x2="275.105" y2="18.428"/>
<line fill="none" stroke="#F7EAE4" stroke-width="3" stroke-miterlimit="10" x1="27.107" y1="0" x2="27.107" y2="14.623"/>
</svg>
