<?xml version="1.0" encoding="utf-8"?>
<!-- Generator: Adobe Illustrator 15.0.0, SVG Export Plug-In  -->
<!DOCTYPE svg PUBLIC "-//W3C//DTD SVG 1.1//EN" "http://www.w3.org/Graphics/SVG/1.1/DTD/svg11.dtd" [
	<!ENTITY ns_flows "http://ns.adobe.com/Flows/1.0/">
]>
<svg version="1.1"
	 xmlns="http://www.w3.org/2000/svg" xmlns:xlink="http://www.w3.org/1999/xlink" xmlns:a="http://ns.adobe.com/AdobeSVGViewerExtensions/3.0/"
	 x="0px" y="0px" width="225px" height="226px" viewBox="-28.098 -7.607 225 226"
	 overflow="visible" enable-background="new -28.098 -7.607 225 226" xml:space="preserve">
<defs>
</defs>
<polygon fill="#FFA6A8" points="87.812,181.43 20.258,207.559 35.004,143.062 0,71.687 55.176,80.981 87.812,37.921 120.451,80.981 
	178.211,73.538 140.623,143.062 157.568,202.243 "/>
<circle fill="#0E3150" cx="120.195" cy="102.772" r="5.236"/>
<circle fill="#0E3150" cx="55.432" cy="102.772" r="5.236"/>
<path fill="#0E3150" d="M87.316,140.563c-13.602,0-27.211-5.088-37.699-15.306l1.396-1.433c20.551,20.021,53.557,19.59,73.58-0.96
	l1.432,1.396C115.453,135.113,101.389,140.563,87.316,140.563z"/>
<path d="M81.72,28.984c0.868,7.592,0.651,15.293-1.301,22.668c-0.435,1.627-1.41,2.495-2.929,2.495h-0.217
	c-7.918,0-4.447-4.447-3.362-16.052c0.325-3.579,0.65-7.158,1.085-10.737c0.325-2.928-0.218-4.989-1.844-4.989
	c-0.543,0-1.085,0.326-1.519,0.651c-4.772,3.579-8.135,15.51-9.87,26.464c-0.542,3.362-1.193,4.338-5.314,4.229l-0.977-0.108
	c-1.735-0.434-2.169-0.759-2.386-2.495c-0.325-2.386,0.542-12.907,0.976-16.594C55.256,24.211,55.689,16.62,57.1,7.4
	c0.434-2.928,1.519-3.688,4.339-2.82c1.844,0.542,2.386,0.976,2.494,3.037c0.108,1.519,0.108,3.146,0,4.772
	c-0.325,4.88-0.542,9.761-1.627,14.534c1.627-2.386,3.254-4.881,5.64-6.725c2.387-1.844,5.857-2.711,8.46-1.519
	C80.094,20.416,81.286,24.971,81.72,28.984z"/>
<path d="M88.659,23.019c0.108-1.084,0.217-2.169,0.542-3.362c0.543-1.844,1.519-2.495,3.254-2.169l1.519,0.325
	c2.929,0.759,3.471,1.627,3.796,4.772c0.109,1.193,0.326,5.749,0,21.367c-0.108,6.182-0.108,14.1-2.494,15.727
	c-1.735,1.193-5.531-0.217-6.183-2.495c-0.434-1.627-0.759-3.362-0.867-5.098c-0.434-7.483,0.325-5.097,0.325-22.017
	C88.551,27.682,88.442,25.405,88.659,23.019z M90.069,11.739c-1.302-1.627-1.41-3.904-1.085-6.074
	c0.326-2.386,4.014-1.084,5.857,0.434c0.65,0.542,0.867,1.518,0.976,2.386c0.325,2.386,0.435,4.881-1.627,5.314
	C92.781,14.125,90.938,12.823,90.069,11.739z"/>
<path d="M116.748,4.581l-0.108,2.277c-0.325,7.918-0.868,15.835-1.627,23.753c-0.542,5.531-1.085,11.062-2.604,16.703
	c-1.952,0.651-3.688,0.434-5.423-0.108c-1.301-0.434-1.952-1.193-1.952-2.603c0-3.362-0.108-6.616,0.108-9.979
	c0.434-6.399,1.085-12.906,1.627-19.306c0.325-3.904,0.65-7.809,1.193-11.713c0.542-3.688,1.735-4.23,5.206-3.037
	c0.65,0.217,1.192,0.542,1.844,0.868C116.206,2.086,116.856,3.062,116.748,4.581z M108.288,52.954
	c-1.735,0.434-2.169,0.65-2.277,2.494c-0.108,1.302,0.108,2.495,0.108,3.796c0,0.868,0.542,1.301,1.41,1.627
	c3.579,1.301,5.748-0.109,5.748-3.905v-0.325c0-2.82,0-3.796-3.796-3.796C109.047,52.845,108.722,52.845,108.288,52.954z"/>
<path d="M139.307,4.581l-0.108,2.277c-0.325,7.918-0.868,15.835-1.627,23.753c-0.542,5.531-1.085,11.062-2.604,16.703
	c-1.952,0.651-3.688,0.434-5.423-0.108c-1.301-0.434-1.952-1.193-1.952-2.603c0-3.362-0.108-6.616,0.108-9.979
	c0.434-6.399,1.085-12.906,1.627-19.306c0.325-3.904,0.65-7.809,1.193-11.713c0.542-3.688,1.735-4.23,5.206-3.037
	c0.65,0.217,1.192,0.542,1.844,0.868C138.765,2.086,139.415,3.062,139.307,4.581z M130.847,52.954
	c-1.735,0.434-2.169,0.65-2.277,2.494c-0.108,1.302,0.108,2.495,0.108,3.796c0,0.868,0.542,1.301,1.41,1.627
	c3.579,1.301,5.748-0.109,5.748-3.905v-0.325c0-2.82,0-3.796-3.796-3.796C131.605,52.845,131.28,52.845,130.847,52.954z"/>
</svg>
