<?xml version="1.0" encoding="utf-8"?>
<!-- Generator: Adobe Illustrator 15.0.0, SVG Export Plug-In  -->
<!DOCTYPE svg PUBLIC "-//W3C//DTD SVG 1.1//EN" "http://www.w3.org/Graphics/SVG/1.1/DTD/svg11.dtd" [
	<!ENTITY ns_flows "http://ns.adobe.com/Flows/1.0/">
]>
<svg version="1.1"
	 xmlns="http://www.w3.org/2000/svg" xmlns:xlink="http://www.w3.org/1999/xlink" xmlns:a="http://ns.adobe.com/AdobeSVGViewerExtensions/3.0/"
	 x="0px" y="0px" width="262px" height="226px" viewBox="-31.453 -29.795 262 226"
	 overflow="visible" enable-background="new -31.453 -29.795 262 226" xml:space="preserve">
<defs>
</defs>
<polygon fill="#FFA6A8" points="118.213,159.497 50.658,185.625 65.403,121.128 15.514,50.505 85.575,59.047 118.213,3.038 
	150.851,59.047 222.604,78.604 171.021,121.128 187.968,180.309 "/>
<circle fill="#0E3150" cx="134.837" cy="83.84" r="5.236"/>
<circle fill="#0E3150" cx="85.831" cy="83.84" r="5.236"/>
<path fill="#0E3150" d="M109.901,125.212c-10.781,0-21.57-4.033-29.885-12.134l1.396-1.432
	c16.125,15.711,42.028,15.373,57.743-0.754l1.432,1.396C132.206,120.892,121.058,125.212,109.901,125.212z"/>
<path d="M28.769,24.796c0.87,7.609,0.652,15.328-1.305,22.719c-0.435,1.63-1.413,2.5-2.935,2.5h-0.218
	c-7.935,0-4.456-4.457-3.369-16.088c0.326-3.587,0.652-7.174,1.087-10.762c0.326-2.935-0.218-5-1.848-5
	c-0.544,0-1.088,0.326-1.522,0.652c-4.783,3.587-8.152,15.544-9.892,26.524c-0.544,3.37-1.196,4.348-5.327,4.239l-0.978-0.109
	c-1.739-0.435-2.175-0.761-2.392-2.5c-0.326-2.392,0.543-12.936,0.978-16.632C2.245,20.014,2.68,12.404,4.093,3.165
	c0.435-2.935,1.522-3.696,4.349-2.826c1.848,0.543,2.392,0.978,2.5,3.043c0.108,1.522,0.108,3.152,0,4.783
	c-0.326,4.892-0.544,9.783-1.631,14.566c1.631-2.392,3.262-4.892,5.652-6.74c2.392-1.848,5.87-2.718,8.479-1.522
	C27.139,16.209,28.334,20.774,28.769,24.796z"/>
<path d="M35.724,18.818c0.108-1.087,0.218-2.174,0.544-3.37c0.543-1.848,1.521-2.5,3.261-2.174L41.05,13.6
	c2.936,0.761,3.479,1.63,3.805,4.783c0.108,1.196,0.326,5.762,0,21.415c-0.108,6.196-0.108,14.131-2.5,15.762
	c-1.739,1.196-5.544-0.217-6.196-2.5c-0.435-1.631-0.761-3.37-0.869-5.109c-0.436-7.5,0.326-5.109,0.326-22.066
	C35.615,23.492,35.506,21.209,35.724,18.818z M37.137,7.513c-1.305-1.63-1.413-3.913-1.087-6.087
	c0.326-2.392,4.021-1.087,5.87,0.435c0.652,0.543,0.869,1.521,0.979,2.391c0.326,2.392,0.435,4.892-1.631,5.327
	C39.854,9.904,38.006,8.6,37.137,7.513z"/>
<path d="M77.463,21.644c1.522-1.957,2.501-2.174,4.457-0.652c0.544,0.435,1.087,0.761,1.631,1.304
	c2.174,2.174-0.761,7.718-2.936,9.566c-1.195,0.979-2.5,1.957-3.913,2.609c-1.956,0.87-4.021,0.87-5.87-0.217
	c-3.261-1.631-3.913-5.218-5.218-8.479c-0.217-0.543-0.543-1.196-0.978-1.63c-1.088-1.087-3.044-0.979-4.24,0
	c-2.826,2.391-3.043,6.739-4.456,8.479c-1.849,2.174-2.936,2.174-5.218,0.761c-0.544-0.326-1.196-1.631-1.305-2.174
	c-0.761-4.022,2.718-9.457,6.522-10.979c2.174-0.87,4.348-0.761,6.521,0.435c2.501,1.413,4.675,3.37,5.87,5.979
	c1.957,4.239,3.805,5.652,6.305,0.979C75.615,25.775,76.159,23.383,77.463,21.644z"/>
</svg>
